<mxfile host="Electron" agent="Mozilla/5.0 (Windows NT 10.0; Win64; x64) AppleWebKit/537.36 (KHTML, like Gecko) draw.io/28.2.5 Chrome/138.0.7204.251 Electron/37.6.1 Safari/537.36" version="28.2.5">
  <diagram name="Página-1" id="hJ_eXqYm3D1mEkZcv2Nx">
    <mxGraphModel dx="1426" dy="889" grid="1" gridSize="10" guides="1" tooltips="1" connect="1" arrows="1" fold="1" page="1" pageScale="1" pageWidth="827" pageHeight="1169" math="0" shadow="0">
      <root>
        <mxCell id="0" />
        <mxCell id="1" parent="0" />
        <mxCell id="LbS66WQh3sgclDBZWbIL-2" style="edgeStyle=orthogonalEdgeStyle;rounded=0;orthogonalLoop=1;jettySize=auto;html=1;" edge="1" parent="1" source="LbS66WQh3sgclDBZWbIL-1">
          <mxGeometry relative="1" as="geometry">
            <mxPoint x="380" y="210" as="targetPoint" />
          </mxGeometry>
        </mxCell>
        <mxCell id="LbS66WQh3sgclDBZWbIL-1" value="UI Web&lt;div&gt;(React/SPA)&lt;/div&gt;" style="rounded=0;whiteSpace=wrap;html=1;" vertex="1" parent="1">
          <mxGeometry x="320" y="60" width="120" height="40" as="geometry" />
        </mxCell>
        <mxCell id="LbS66WQh3sgclDBZWbIL-9" style="edgeStyle=orthogonalEdgeStyle;rounded=0;orthogonalLoop=1;jettySize=auto;html=1;exitX=0;exitY=1;exitDx=0;exitDy=0;" edge="1" parent="1" source="LbS66WQh3sgclDBZWbIL-3" target="LbS66WQh3sgclDBZWbIL-5">
          <mxGeometry relative="1" as="geometry">
            <Array as="points">
              <mxPoint x="140" y="250" />
            </Array>
          </mxGeometry>
        </mxCell>
        <mxCell id="LbS66WQh3sgclDBZWbIL-11" style="edgeStyle=orthogonalEdgeStyle;rounded=0;orthogonalLoop=1;jettySize=auto;html=1;exitX=0.25;exitY=1;exitDx=0;exitDy=0;entryX=0.5;entryY=0;entryDx=0;entryDy=0;" edge="1" parent="1" source="LbS66WQh3sgclDBZWbIL-3" target="LbS66WQh3sgclDBZWbIL-6">
          <mxGeometry relative="1" as="geometry" />
        </mxCell>
        <mxCell id="LbS66WQh3sgclDBZWbIL-15" style="edgeStyle=orthogonalEdgeStyle;rounded=0;orthogonalLoop=1;jettySize=auto;html=1;exitX=1;exitY=1;exitDx=0;exitDy=0;" edge="1" parent="1" source="LbS66WQh3sgclDBZWbIL-3" target="LbS66WQh3sgclDBZWbIL-8">
          <mxGeometry relative="1" as="geometry">
            <Array as="points">
              <mxPoint x="620" y="250" />
            </Array>
          </mxGeometry>
        </mxCell>
        <mxCell id="LbS66WQh3sgclDBZWbIL-3" value="API Gateway" style="rounded=0;whiteSpace=wrap;html=1;" vertex="1" parent="1">
          <mxGeometry x="320" y="210" width="120" height="40" as="geometry" />
        </mxCell>
        <mxCell id="LbS66WQh3sgclDBZWbIL-5" value="Módulo de Inscrições" style="rounded=0;whiteSpace=wrap;html=1;" vertex="1" parent="1">
          <mxGeometry x="80" y="310" width="120" height="40" as="geometry" />
        </mxCell>
        <mxCell id="LbS66WQh3sgclDBZWbIL-18" style="edgeStyle=orthogonalEdgeStyle;rounded=0;orthogonalLoop=1;jettySize=auto;html=1;entryX=0.5;entryY=0;entryDx=0;entryDy=0;" edge="1" parent="1" source="LbS66WQh3sgclDBZWbIL-6" target="LbS66WQh3sgclDBZWbIL-17">
          <mxGeometry relative="1" as="geometry" />
        </mxCell>
        <mxCell id="LbS66WQh3sgclDBZWbIL-6" value="Módulo de Relatórios" style="rounded=0;whiteSpace=wrap;html=1;" vertex="1" parent="1">
          <mxGeometry x="240" y="310" width="120" height="40" as="geometry" />
        </mxCell>
        <mxCell id="LbS66WQh3sgclDBZWbIL-7" value="Módulo de Resultados" style="rounded=0;whiteSpace=wrap;html=1;" vertex="1" parent="1">
          <mxGeometry x="400" y="310" width="120" height="40" as="geometry" />
        </mxCell>
        <mxCell id="LbS66WQh3sgclDBZWbIL-8" value="Módulo de Alocação" style="rounded=0;whiteSpace=wrap;html=1;" vertex="1" parent="1">
          <mxGeometry x="560" y="310" width="120" height="40" as="geometry" />
        </mxCell>
        <mxCell id="LbS66WQh3sgclDBZWbIL-10" value="REST" style="text;html=1;align=center;verticalAlign=middle;resizable=0;points=[];autosize=1;strokeColor=none;fillColor=none;" vertex="1" parent="1">
          <mxGeometry x="180" y="228" width="60" height="30" as="geometry" />
        </mxCell>
        <mxCell id="LbS66WQh3sgclDBZWbIL-12" value="REST" style="text;html=1;align=center;verticalAlign=middle;resizable=0;points=[];autosize=1;strokeColor=none;fillColor=none;" vertex="1" parent="1">
          <mxGeometry x="290" y="258" width="60" height="30" as="geometry" />
        </mxCell>
        <mxCell id="LbS66WQh3sgclDBZWbIL-13" style="edgeStyle=orthogonalEdgeStyle;rounded=0;orthogonalLoop=1;jettySize=auto;html=1;exitX=0.75;exitY=1;exitDx=0;exitDy=0;entryX=0.5;entryY=0.25;entryDx=0;entryDy=0;entryPerimeter=0;" edge="1" parent="1" source="LbS66WQh3sgclDBZWbIL-3" target="LbS66WQh3sgclDBZWbIL-7">
          <mxGeometry relative="1" as="geometry" />
        </mxCell>
        <mxCell id="LbS66WQh3sgclDBZWbIL-14" value="REST" style="edgeLabel;html=1;align=center;verticalAlign=middle;resizable=0;points=[];" vertex="1" connectable="0" parent="LbS66WQh3sgclDBZWbIL-13">
          <mxGeometry x="-0.05" y="8" relative="1" as="geometry">
            <mxPoint as="offset" />
          </mxGeometry>
        </mxCell>
        <mxCell id="LbS66WQh3sgclDBZWbIL-16" value="REST" style="text;html=1;align=center;verticalAlign=middle;resizable=0;points=[];autosize=1;strokeColor=none;fillColor=none;" vertex="1" parent="1">
          <mxGeometry x="490" y="228" width="60" height="30" as="geometry" />
        </mxCell>
        <mxCell id="LbS66WQh3sgclDBZWbIL-17" value="Motor de Relatórios&lt;div&gt;(Templates/Export)&lt;/div&gt;" style="rounded=0;whiteSpace=wrap;html=1;" vertex="1" parent="1">
          <mxGeometry x="240" y="420" width="120" height="40" as="geometry" />
        </mxCell>
        <mxCell id="LbS66WQh3sgclDBZWbIL-19" value="Banco de dados" style="shape=datastore;whiteSpace=wrap;html=1;" vertex="1" parent="1">
          <mxGeometry x="440" y="420" width="90" height="70" as="geometry" />
        </mxCell>
        <mxCell id="LbS66WQh3sgclDBZWbIL-21" value="" style="endArrow=classic;html=1;rounded=0;entryX=0.15;entryY=0.05;entryDx=0;entryDy=0;entryPerimeter=0;exitX=0.5;exitY=1;exitDx=0;exitDy=0;" edge="1" parent="1" source="LbS66WQh3sgclDBZWbIL-5" target="LbS66WQh3sgclDBZWbIL-19">
          <mxGeometry width="50" height="50" relative="1" as="geometry">
            <mxPoint x="100" y="460" as="sourcePoint" />
            <mxPoint x="150" y="410" as="targetPoint" />
          </mxGeometry>
        </mxCell>
        <mxCell id="LbS66WQh3sgclDBZWbIL-24" value="" style="endArrow=classic;html=1;rounded=0;entryX=0.5;entryY=0;entryDx=0;entryDy=0;exitX=0.75;exitY=1;exitDx=0;exitDy=0;" edge="1" parent="1" source="LbS66WQh3sgclDBZWbIL-6" target="LbS66WQh3sgclDBZWbIL-19">
          <mxGeometry width="50" height="50" relative="1" as="geometry">
            <mxPoint x="400" y="380" as="sourcePoint" />
            <mxPoint x="714" y="454" as="targetPoint" />
          </mxGeometry>
        </mxCell>
        <mxCell id="LbS66WQh3sgclDBZWbIL-25" value="" style="endArrow=classic;html=1;rounded=0;entryX=0.656;entryY=0.029;entryDx=0;entryDy=0;exitX=0.5;exitY=1;exitDx=0;exitDy=0;entryPerimeter=0;" edge="1" parent="1" source="LbS66WQh3sgclDBZWbIL-7" target="LbS66WQh3sgclDBZWbIL-19">
          <mxGeometry width="50" height="50" relative="1" as="geometry">
            <mxPoint x="600" y="440" as="sourcePoint" />
            <mxPoint x="914" y="514" as="targetPoint" />
          </mxGeometry>
        </mxCell>
        <mxCell id="LbS66WQh3sgclDBZWbIL-26" value="" style="endArrow=classic;html=1;rounded=0;entryX=0.85;entryY=0.05;entryDx=0;entryDy=0;entryPerimeter=0;exitX=0.25;exitY=1;exitDx=0;exitDy=0;" edge="1" parent="1" source="LbS66WQh3sgclDBZWbIL-8" target="LbS66WQh3sgclDBZWbIL-19">
          <mxGeometry width="50" height="50" relative="1" as="geometry">
            <mxPoint x="590" y="390" as="sourcePoint" />
            <mxPoint x="904" y="464" as="targetPoint" />
          </mxGeometry>
        </mxCell>
      </root>
    </mxGraphModel>
  </diagram>
</mxfile>
